# xmcd
#
# Track frame offsets:
#	180
#	12107
#	24654
#	36600
#	51388
#	65683
#	80723
#	93583
#	106882
#	117661
#	135281
#
# Disc length: 1982 seconds
# Revision: 0
# Processed by: cddbd v1.5.2PL0 Copyright (c) Steve Scherf et al.
# Submitted via: dBpowerAMP V12.0
#
DISCID=9a07bc0b
DTITLE=MIchael Cornett - Rough Sketches
DYEAR=1994
DGENRE=Country
TTITLE0=Love Will Make You Crazy
TTITLE1=My Heart Is Bleeding
TTITLE2=Cowboys Ride Horses
TTITLE3=Gypsy Dreamer
TTITLE4=Give Me A Push
TTITLE5=Fair Weather Sailor
TTITLE6=Bobby ANd Larry
TTITLE7=Small Town Livin'
TTITLE8=Girl From Laurel Creek
TTITLE9=Noose Haven
TTITLE10=I Know All About Women
EXTD=
EXTT0=
EXTT1=
EXTT2=
EXTT3=
EXTT4=
EXTT5=
EXTT6=
EXTT7=
EXTT8=
EXTT9=
EXTT10=
PLAYORDER=
